<?xml version="1.0" encoding="utf-8"?>
<!-- Generator: Adobe Illustrator 16.0.0, SVG Export Plug-In . SVG Version: 6.00 Build 0)  -->
<!DOCTYPE svg PUBLIC "-//W3C//DTD SVG 1.1//EN" "http://www.w3.org/Graphics/SVG/1.1/DTD/svg11.dtd">
<svg version="1.1" id="Layer_1" xmlns="http://www.w3.org/2000/svg" xmlns:xlink="http://www.w3.org/1999/xlink" x="0px" y="0px"
	  viewBox="0 0 1016 806" style="enable-background:new 0 0 1016 806;" xml:space="preserve" class="tarsier-svg">
<style type="text/css">
.st0,.st2,.st1,.st3{
	fill:#2D2D2D;
	
}

.tarsier-svg:hover #pupille-gauche,.tarsier-svg:hover #pupille-droite{
	fill:tomato;
	transition:all 0.3s;
}

<!--.tarsier-svg #pupille-gauche, .tarsier-svg #pupille-droite, .tarsier-svg #text{
	opacity:0;
	animation: opacityAnim 2s;
	animation-fill-mode: forwards;
	animation-delay:0.5s;
}

@keyframes opacityAnim{
	from {opacity: 0}
	to {opacity: 1}
}-->

</style>

<g>
	<defs>
		<rect id="background" x="-579" y="-669.771" width="2206.219" height="2146.771"/>
	</defs>
	<clipPath id="background_1_">
		<use xlink:href="#background"  style="overflow:visible;"/>
	</clipPath>
	<path class="st0" d="M503.064,265.843c0,0,1.717-116.63-80.969-182.712C330.771,9.36,256.711,26.066,246.438,29.322
		c29.991-8.857,72.33-19.266,156.324,26.809c80.026,43.899,99.233,124.503,100.302,127.717V265.843z"/>
	<path class="st0" d="M503.067,265.843c0,0-1.717-116.63,80.969-182.712C675.359,9.36,749.42,26.066,759.692,29.322
		c-29.991-8.857-72.33-19.266-156.323,26.809c-80.026,43.899-99.233,124.503-100.302,127.717V265.843z"/>
	<path class="st0" d="M47.034,462.438c0,0-59.359-108.346,1.248-210.2c71.319-101.848,207.026-72.664,220.132-62.129
		c0,0-104.635-54.628-210.478,37.498C-37.583,336.247,46.721,458.342,47.034,462.438"/>
	<path class="st0" id="pupille-gauche" d="M267.519,393.227c0.933,12.217-10.415,23.045-25.347,24.186s-27.793-7.839-28.726-20.056
		s10.415-23.045,25.347-24.186C253.725,372.03,266.585,381.009,267.519,393.227"/>
	<path class="st0" d="M971.136,461.785c0,0,59.359-108.346-1.248-210.2c-71.318-101.848-207.025-72.664-220.132-62.13
		c0,0,104.635-54.627,210.479,37.499C1055.753,335.594,971.449,457.689,971.136,461.785"/>
	<path class="st0" d="M566.078,468.338c-3.485-4.511-19.777-178.6,104.977-298.951c156.207-150.698,321.644-0.148,321.644-0.148
		S799.688-8.224,636.713,191.211C495.27,364.298,566.078,468.338,566.078,468.338"/>
	<path class="st0" d="M219.589,193.695c-4.859,0-9.857,0.168-14.856,0.499c-37.574,2.488-69.623,12.724-95.259,30.422
		c-20.559,14.193-37.028,33.166-48.952,56.391c-20.245,39.433-20.334,76.933-20.325,78.601c0.752,21.99,5.392,65.266,27.998,108.022
		c21.366,40.41,52.18,68.123,91.586,82.369c20.85,7.538,42.632,11.359,64.739,11.359c41.846,0,84.363-13.192,126.368-39.211
		c22.215-13.761,40.007-27.481,48.558-34.075c2.309-1.781,3.977-3.067,4.706-3.561l0.017-0.012c0.416,0.552,0.995,1.586,1.444,2.388
		c0.565,1.011,1.207,2.156,1.995,3.35l3.524,5.339l1.851-6.123c9.206-30.44-5.579-121.381-5.73-122.296
		C406.968,365.424,376.909,193.695,219.589,193.695 M382.344,455.192c-6.09,21.348-15.934,30.418-16.024,30.5l-0.31,0.319
		c-30.611,36.691-101.96,56.233-141.697,56.233c-40.034,0-95.707-13.943-133.689-80.353
		c-24.182-59.615-25.916-111.288-5.153-153.584c26.463-53.905,79.838-73.823,101.558-79.885c11.759-3.282,24.104-4.946,36.69-4.946
		c31.757,0,63.605,10.757,89.679,30.289c29.312,21.958,50.941,54.45,62.548,93.965C391.483,400.625,388.001,435.364,382.344,455.192
		"/>
	<path class="st0" d="M957.647,280.355c-11.923-23.225-28.395-42.198-48.952-56.391c-25.636-17.699-57.686-27.934-95.259-30.423
		c-4.999-0.331-9.997-0.498-14.856-0.498c-157.319,0-187.378,171.729-187.664,173.462c-0.149,0.915-14.938,91.849-5.729,122.295
		l1.852,6.125l3.524-5.34c0.787-1.193,1.428-2.339,1.994-3.349c0.449-0.803,1.027-1.837,1.443-2.39
		c0.006,0.004,0.012,0.008,0.018,0.012c0.729,0.494,2.396,1.78,4.704,3.56c8.551,6.593,26.343,20.314,48.56,34.077
		c42.006,26.019,84.522,39.211,126.368,39.211c22.106,0,43.889-3.822,64.739-11.359c39.405-14.246,70.22-41.959,91.586-82.371
		c22.606-42.755,27.245-86.031,28-108.112C977.981,357.287,977.893,319.787,957.647,280.355 M927.545,461.239
		c-37.98,66.409-93.655,80.354-133.689,80.354c-61.845,0-122.028-32.658-141.696-56.233l-0.301-0.312
		c-0.099-0.089-9.943-9.16-16.033-30.507c-5.657-19.828-9.139-54.568,6.398-107.462c11.605-39.511,33.234-72.003,62.549-93.962
		c26.075-19.534,57.923-30.291,89.678-30.291c12.586,0,24.931,1.664,36.691,4.945c21.719,6.062,75.094,25.979,101.557,79.885
		C953.463,349.951,951.729,401.624,927.545,461.239"/>
	<path id="pupille-droite" class="st0" d="M750.651,392.574c-0.934,12.217,10.415,23.045,25.347,24.186
		c14.932,1.14,27.793-7.839,28.727-20.056c0.933-12.217-10.415-23.045-25.348-24.186
		C764.445,371.378,751.584,380.356,750.651,392.574"/>
	<path class="st0" d="M445.842,468.338c3.485-4.511,19.777-178.6-104.975-298.951c-156.209-150.698-321.645-0.148-321.645-0.148
		s193.01-177.463,355.985,21.972C516.649,364.298,445.842,468.338,445.842,468.338"/>
	<g id="text" class="st1">
		<path class="st3" d="M684.001,619.512c9.112,0,21.458-17.049,21.751-31.746c0.295-14.696-23.221-16.166-23.221-16.166
			s-6.592,12.739-8.98,23.956c-3.365,19.075-3.365,20.825-3.365,23.956C671.949,617.454,674.889,619.512,684.001,619.512"/>
		<path class="st3" d="M238.177,676.542c-19.204,16.069-32.53,38.408-26.651,61.923c-9.798,9.016-17.245,16.069-19.988,11.366
			c-2.743-4.703-12.805-35.061,12.67-100.512c12.934-31.354,22.785-48.991,10.805-53.694s-18.643-12.933-22.563-10.189
			c0,0-31.482,92.282-30.306,131.082c1.176,38.801,14.086,40.761,21.152,42.721c7.066,1.959,22.351-8.231,30.581-16.854
			c4.312,5.487,18.554,25.704,39.192,19.597c17.049-5.046,25.083-27.043,25.083-28.61c0-1.568-12.607,17.018-22.731,18.42
			c-9.553,1.322-18.42-1.176-16.853-19.988c11.366-5.095,61.924-35.272,52.126-48.206
			C280.896,670.663,257.38,660.474,238.177,676.542 M259.83,702.556c0,0-12.492,17.489-21.164,22.928
			c0,0,10.141-36.89,26.308-41.298C274.674,683.156,259.83,702.556,259.83,702.556"/>
		<path class="st3" d="M549.067,673.603c-7.056,21.752-33.509,68.488-5.585,78.776c24.192,8.753,30.86-9.199,41.442-26.247
			c10.582-17.049,18.712-38.42,18.712-38.42s7.349,76.719-35.272,97c-9.917,4.002-14.583-14.748-14.583-14.748
			s-0.331,18.86,11.427,21.506c17.292,3.891,32.073,4.661,46.071-13.812c11.253-15.443,21.739-29.875,21.722-67.603l10.01-11.293
			c-0.245,0.607-0.971,3.057-2.338,10.996c-2.854,16.59,7.32,31.736,19.106,37.33c8.521,4.044,18.588-9.176,23.646-13.206
			c2.697-2.148,4.267-4.204,7.472-7.401c0,0-0.383-0.428,1.805,2.971c9.12,12.644,33.136,20.144,44.599,8.681
			c11.464-11.464,33.291-34.108,42.697-70.556c12.052,1.469,11.357,0.769,15.178,0.181c-4.409,9.994-27.235,57.58-9.306,73.452
			c17.93,15.873,34.686,9.699,43.209-2.646c8.524-12.345,14.32-29.441,17.847-38.057c-22.125,36.5-35.5,40.5-41.361,34.53
			c-6.746-6.87,4.702-33.217,14.108-52.91s15.579-29.101,4.116-30.276c-11.464-1.175-28.513,7.055-35.272,7.938l-6.762,0.882
			c0,0,7.643-19.856-4.409-22.568c-12.052-2.711-13.8,14.427-10.545,21.155c2.228,4.601,6.071,6.765,6.071,6.765
			s-6.098,35.211-26.085,51.966c-19.988,16.755-38.82,25.72-33.529-3.969c0,0,65.862-27.776,44.698-60.992
			c0,0-7.348-10.287-36.154-4.114c-22.494,4.819-33.239,45.406-32.126,67.845c-0.549,0.439-3.973,4.098-4.25,4.375
			c-2.645,2.645-7.515,7.36-12.125,11.25c-2.725,2.3-5.5,1.5-7.25,0.5c-2.645-4.116,8.791-41.934,10.555-47.225
			c2.058-0.882,7.552-3.693,11.1-8.82c13.228-22.046-16.461-19.988-25.279-19.401c-8.817,0.588-11.346,20.634-15.167,27.102
			c-1.908,3.228-9.458,12.707-14.144,16.677c-0.347-10.924-3.317-26.492-5.564-40.332c-4.933-6.481-6.125-7.875-6.125-7.875
			s9.548-24.965-0.445-29.374c-9.994-4.409-26.473,1.902-26.18,14.249c0.295,12.345,3.884,15.792,5.5,20.5
			c3.159,9.197,3.337,10.518,3.337,10.518s-26.939,69.958-41.343,71.429c-14.403,1.469,13.228-47.698,17.343-56.184
			c4.115-8.484,18.812-27.979,4.115-29.255c-14.697-1.275-24.844,0-24.844,0s-5.727,12.54-20.129,7.544
			c1.764-8.23,11.757-39.682-0.882-43.21c-12.64-3.527-26.748,9.728-22.927,26.909s12.345,20.416,12.345,20.416
			s-32.627,65.842-42.327,65.548c-9.7-0.294,7.936-39.094,14.697-49.382c6.76-10.288,11.464-16.46-0.882-20.576
			c-12.345-4.115-23.809-2.939-23.809-2.939s-0.419,13.377-4.703,11.465c0,0-19.106-9.994-37.918-6.174
			c-13.959,2.836-33.696,37.361-33.972,60.526c-7.556,7.047-17.715,16.258-21.583,18.544c-6.467,3.821-8.525,4.115-8.525-11.17
			s19.107-99.646,21.752-104.643c5.879-0.882,48.894-8.397,99.173-20.751c43.829-10.682,96.832-52.365,77.375-107.865
			c3.59,22.646-14.614,60.669-62.233,74.189c-47.618,13.521-103.145,22.682-103.145,22.682s9.406-33.509,14.697-44.386
			c5.291-10.876-7.349-14.108-12.64-15.578c-5.29-1.471-13.227-2.939-13.227-2.939s-17.636,40.716-23.515,66.289
			c-23.221,3.233-86.124,11.259-100.528,20.077c2.94,9.7,5.662,22.429,25.944,21.547c20.281-0.882,64.884-9.291,64.884-9.291
			s-27.631,102.727-12.64,116.248c14.992,13.521,29.688,12.933,35.861,7.936c6.173-4.997,17.636-20.574,17.636-20.574l1.478-2.865
			c1.06,4.643,3.244,8.468,7.047,10.801c22.045,13.521,36.154,15.579,47.618-4.409c4.115,7.937,5.879,13.228,23.515,17.342
			c0,0,14.403,4.115,28.219-23.809c16.754-31.158,28.806-61.727,28.806-61.727S539.458,674.324,549.067,673.603 M737.673,664.196
			c14.404-9.405,2.646,17.931,0,22.341c-2.645,4.408-10.855,11.927-22.873,17.595C714.8,704.132,723.271,673.603,737.673,664.196
			 M455.888,718.576c-2.646,9.993-22.928,23.809-27.631,23.221c-4.703-0.588-2.645-14.109,14.109-43.209
			c16.755-29.101,23.516-24.104,23.516-24.104C470.508,673.817,458.533,708.582,455.888,718.576 M529.961,659.788
			c-9.994-8.818-3.822-32.04,2.352-32.04C541.424,630.071,529.961,659.788,529.961,659.788 M612.455,646.133
			c0,0-7.642-9.86-3.232-14.563C613.631,626.866,613.925,633.653,612.455,646.133"/>
		<path class="st2" d="M774.447,658.047c0,0-7-5.906-1.333-11.62C778.78,640.714,774.447,658.047,774.447,658.047"/>
	</g>
</g>
</svg>
